<mxfile host="app.diagrams.net" modified="2023-05-28T17:07:49.620Z" agent="Mozilla/5.0 (Windows NT 10.0; Win64; x64) AppleWebKit/537.36 (KHTML, like Gecko) Chrome/113.0.0.0 Safari/537.36" etag="so4bDqCcL_dBK4g8mPBr" version="21.2.9" type="github">
  <diagram name="Page-1" id="GmzbIxpFyT9GE-uGBJsd">
    <mxGraphModel dx="728" dy="746" grid="1" gridSize="10" guides="1" tooltips="1" connect="1" arrows="1" fold="1" page="1" pageScale="1" pageWidth="850" pageHeight="1100" math="0" shadow="0">
      <root>
        <mxCell id="0" />
        <mxCell id="1" parent="0" />
        <mxCell id="IGHmpWDE9cVPvyqDdLVu-1" value="" style="ellipse;whiteSpace=wrap;html=1;aspect=fixed;fillColor=#dae8fc;strokeColor=#6c8ebf;" parent="1" vertex="1">
          <mxGeometry x="360" y="50" width="50" height="50" as="geometry" />
        </mxCell>
        <mxCell id="IGHmpWDE9cVPvyqDdLVu-24" style="edgeStyle=orthogonalEdgeStyle;rounded=0;orthogonalLoop=1;jettySize=auto;html=1;exitX=0.5;exitY=1;exitDx=0;exitDy=0;entryX=0.5;entryY=0;entryDx=0;entryDy=0;" parent="1" source="IGHmpWDE9cVPvyqDdLVu-2" target="IGHmpWDE9cVPvyqDdLVu-11" edge="1">
          <mxGeometry relative="1" as="geometry" />
        </mxCell>
        <mxCell id="IGHmpWDE9cVPvyqDdLVu-2" value="" style="ellipse;whiteSpace=wrap;html=1;aspect=fixed;" parent="1" vertex="1">
          <mxGeometry x="360" y="440" width="50" height="50" as="geometry" />
        </mxCell>
        <mxCell id="IGHmpWDE9cVPvyqDdLVu-13" value="" style="edgeStyle=orthogonalEdgeStyle;rounded=0;orthogonalLoop=1;jettySize=auto;html=1;" parent="1" source="IGHmpWDE9cVPvyqDdLVu-3" target="IGHmpWDE9cVPvyqDdLVu-4" edge="1">
          <mxGeometry relative="1" as="geometry" />
        </mxCell>
        <mxCell id="IGHmpWDE9cVPvyqDdLVu-3" value="" style="ellipse;whiteSpace=wrap;html=1;aspect=fixed;" parent="1" vertex="1">
          <mxGeometry x="360" y="120" width="50" height="50" as="geometry" />
        </mxCell>
        <mxCell id="IGHmpWDE9cVPvyqDdLVu-14" style="edgeStyle=orthogonalEdgeStyle;rounded=0;orthogonalLoop=1;jettySize=auto;html=1;exitX=1;exitY=0;exitDx=0;exitDy=0;entryX=0;entryY=0;entryDx=0;entryDy=0;" parent="1" source="IGHmpWDE9cVPvyqDdLVu-4" target="IGHmpWDE9cVPvyqDdLVu-5" edge="1">
          <mxGeometry relative="1" as="geometry" />
        </mxCell>
        <mxCell id="IGHmpWDE9cVPvyqDdLVu-22" style="edgeStyle=orthogonalEdgeStyle;rounded=0;orthogonalLoop=1;jettySize=auto;html=1;exitX=0.5;exitY=1;exitDx=0;exitDy=0;entryX=0.5;entryY=0;entryDx=0;entryDy=0;" parent="1" source="IGHmpWDE9cVPvyqDdLVu-4" target="IGHmpWDE9cVPvyqDdLVu-2" edge="1">
          <mxGeometry relative="1" as="geometry" />
        </mxCell>
        <mxCell id="IGHmpWDE9cVPvyqDdLVu-4" value="" style="ellipse;whiteSpace=wrap;html=1;aspect=fixed;" parent="1" vertex="1">
          <mxGeometry x="360" y="190" width="50" height="50" as="geometry" />
        </mxCell>
        <mxCell id="IGHmpWDE9cVPvyqDdLVu-15" style="edgeStyle=orthogonalEdgeStyle;rounded=0;orthogonalLoop=1;jettySize=auto;html=1;exitX=0;exitY=1;exitDx=0;exitDy=0;entryX=1;entryY=0.84;entryDx=0;entryDy=0;entryPerimeter=0;" parent="1" source="IGHmpWDE9cVPvyqDdLVu-5" target="IGHmpWDE9cVPvyqDdLVu-4" edge="1">
          <mxGeometry relative="1" as="geometry" />
        </mxCell>
        <mxCell id="IGHmpWDE9cVPvyqDdLVu-29" style="edgeStyle=orthogonalEdgeStyle;rounded=0;orthogonalLoop=1;jettySize=auto;html=1;exitX=1;exitY=0.5;exitDx=0;exitDy=0;entryX=0;entryY=0.5;entryDx=0;entryDy=0;" parent="1" source="IGHmpWDE9cVPvyqDdLVu-5" target="IGHmpWDE9cVPvyqDdLVu-6" edge="1">
          <mxGeometry relative="1" as="geometry" />
        </mxCell>
        <mxCell id="IGHmpWDE9cVPvyqDdLVu-5" value="" style="ellipse;whiteSpace=wrap;html=1;aspect=fixed;" parent="1" vertex="1">
          <mxGeometry x="480" y="190" width="50" height="50" as="geometry" />
        </mxCell>
        <mxCell id="IGHmpWDE9cVPvyqDdLVu-18" style="edgeStyle=orthogonalEdgeStyle;rounded=0;orthogonalLoop=1;jettySize=auto;html=1;exitX=1;exitY=0;exitDx=0;exitDy=0;entryX=0;entryY=0.5;entryDx=0;entryDy=0;" parent="1" source="IGHmpWDE9cVPvyqDdLVu-6" target="IGHmpWDE9cVPvyqDdLVu-7" edge="1">
          <mxGeometry relative="1" as="geometry" />
        </mxCell>
        <mxCell id="IGHmpWDE9cVPvyqDdLVu-19" style="edgeStyle=orthogonalEdgeStyle;rounded=0;orthogonalLoop=1;jettySize=auto;html=1;exitX=1;exitY=0.5;exitDx=0;exitDy=0;entryX=0;entryY=0.5;entryDx=0;entryDy=0;" parent="1" source="IGHmpWDE9cVPvyqDdLVu-6" target="IGHmpWDE9cVPvyqDdLVu-8" edge="1">
          <mxGeometry relative="1" as="geometry" />
        </mxCell>
        <mxCell id="IGHmpWDE9cVPvyqDdLVu-20" style="edgeStyle=orthogonalEdgeStyle;rounded=0;orthogonalLoop=1;jettySize=auto;html=1;exitX=1;exitY=1;exitDx=0;exitDy=0;entryX=0;entryY=0.5;entryDx=0;entryDy=0;" parent="1" source="IGHmpWDE9cVPvyqDdLVu-6" target="IGHmpWDE9cVPvyqDdLVu-9" edge="1">
          <mxGeometry relative="1" as="geometry" />
        </mxCell>
        <mxCell id="IGHmpWDE9cVPvyqDdLVu-21" style="edgeStyle=orthogonalEdgeStyle;rounded=0;orthogonalLoop=1;jettySize=auto;html=1;exitX=0.5;exitY=1;exitDx=0;exitDy=0;entryX=-0.04;entryY=0.38;entryDx=0;entryDy=0;entryPerimeter=0;" parent="1" source="IGHmpWDE9cVPvyqDdLVu-6" target="IGHmpWDE9cVPvyqDdLVu-10" edge="1">
          <mxGeometry relative="1" as="geometry">
            <Array as="points">
              <mxPoint x="635" y="390" />
            </Array>
          </mxGeometry>
        </mxCell>
        <mxCell id="IGHmpWDE9cVPvyqDdLVu-30" style="edgeStyle=orthogonalEdgeStyle;rounded=0;orthogonalLoop=1;jettySize=auto;html=1;exitX=0;exitY=1;exitDx=0;exitDy=0;entryX=1;entryY=1;entryDx=0;entryDy=0;" parent="1" source="IGHmpWDE9cVPvyqDdLVu-6" target="IGHmpWDE9cVPvyqDdLVu-5" edge="1">
          <mxGeometry relative="1" as="geometry" />
        </mxCell>
        <mxCell id="IGHmpWDE9cVPvyqDdLVu-6" value="" style="ellipse;whiteSpace=wrap;html=1;aspect=fixed;" parent="1" vertex="1">
          <mxGeometry x="610" y="190" width="50" height="50" as="geometry" />
        </mxCell>
        <mxCell id="IGHmpWDE9cVPvyqDdLVu-25" style="edgeStyle=orthogonalEdgeStyle;rounded=0;orthogonalLoop=1;jettySize=auto;html=1;exitX=1;exitY=0.5;exitDx=0;exitDy=0;entryX=0.5;entryY=0;entryDx=0;entryDy=0;" parent="1" source="IGHmpWDE9cVPvyqDdLVu-7" target="IGHmpWDE9cVPvyqDdLVu-5" edge="1">
          <mxGeometry relative="1" as="geometry">
            <Array as="points">
              <mxPoint x="790" y="115" />
              <mxPoint x="790" y="50" />
              <mxPoint x="505" y="50" />
            </Array>
          </mxGeometry>
        </mxCell>
        <mxCell id="IGHmpWDE9cVPvyqDdLVu-7" value="" style="ellipse;whiteSpace=wrap;html=1;aspect=fixed;" parent="1" vertex="1">
          <mxGeometry x="720" y="90" width="50" height="50" as="geometry" />
        </mxCell>
        <mxCell id="IGHmpWDE9cVPvyqDdLVu-26" style="edgeStyle=orthogonalEdgeStyle;rounded=0;orthogonalLoop=1;jettySize=auto;html=1;exitX=1;exitY=0.5;exitDx=0;exitDy=0;" parent="1" source="IGHmpWDE9cVPvyqDdLVu-8" edge="1">
          <mxGeometry relative="1" as="geometry">
            <mxPoint x="790" y="110" as="targetPoint" />
          </mxGeometry>
        </mxCell>
        <mxCell id="IGHmpWDE9cVPvyqDdLVu-8" value="" style="ellipse;whiteSpace=wrap;html=1;aspect=fixed;" parent="1" vertex="1">
          <mxGeometry x="720" y="190" width="50" height="50" as="geometry" />
        </mxCell>
        <mxCell id="IGHmpWDE9cVPvyqDdLVu-27" style="edgeStyle=orthogonalEdgeStyle;rounded=0;orthogonalLoop=1;jettySize=auto;html=1;exitX=1;exitY=0.5;exitDx=0;exitDy=0;" parent="1" source="IGHmpWDE9cVPvyqDdLVu-9" edge="1">
          <mxGeometry relative="1" as="geometry">
            <mxPoint x="790" y="210" as="targetPoint" />
          </mxGeometry>
        </mxCell>
        <mxCell id="IGHmpWDE9cVPvyqDdLVu-9" value="" style="ellipse;whiteSpace=wrap;html=1;aspect=fixed;" parent="1" vertex="1">
          <mxGeometry x="720" y="280" width="50" height="50" as="geometry" />
        </mxCell>
        <mxCell id="IGHmpWDE9cVPvyqDdLVu-28" style="edgeStyle=orthogonalEdgeStyle;rounded=0;orthogonalLoop=1;jettySize=auto;html=1;exitX=1;exitY=0.5;exitDx=0;exitDy=0;" parent="1" source="IGHmpWDE9cVPvyqDdLVu-10" edge="1">
          <mxGeometry relative="1" as="geometry">
            <mxPoint x="790" y="300" as="targetPoint" />
          </mxGeometry>
        </mxCell>
        <mxCell id="IGHmpWDE9cVPvyqDdLVu-10" value="" style="ellipse;whiteSpace=wrap;html=1;aspect=fixed;" parent="1" vertex="1">
          <mxGeometry x="720" y="370" width="50" height="50" as="geometry" />
        </mxCell>
        <mxCell id="IGHmpWDE9cVPvyqDdLVu-11" value="" style="ellipse;whiteSpace=wrap;html=1;aspect=fixed;fillColor=#f8cecc;strokeColor=#b85450;" parent="1" vertex="1">
          <mxGeometry x="360" y="525" width="50" height="50" as="geometry" />
        </mxCell>
        <mxCell id="IGHmpWDE9cVPvyqDdLVu-12" value="" style="endArrow=classic;html=1;rounded=0;" parent="1" edge="1">
          <mxGeometry width="50" height="50" relative="1" as="geometry">
            <mxPoint x="384.5" y="100" as="sourcePoint" />
            <mxPoint x="385" y="120" as="targetPoint" />
          </mxGeometry>
        </mxCell>
        <mxCell id="pQw8ELn-m5ZEo0cLQNb4-1" value="" style="ellipse;whiteSpace=wrap;html=1;aspect=fixed;fillColor=#dae8fc;strokeColor=#6c8ebf;" vertex="1" parent="1">
          <mxGeometry x="1040" y="20" width="50" height="50" as="geometry" />
        </mxCell>
        <mxCell id="pQw8ELn-m5ZEo0cLQNb4-2" style="edgeStyle=orthogonalEdgeStyle;rounded=0;orthogonalLoop=1;jettySize=auto;html=1;exitX=0.5;exitY=1;exitDx=0;exitDy=0;entryX=0.5;entryY=0;entryDx=0;entryDy=0;" edge="1" parent="1" source="pQw8ELn-m5ZEo0cLQNb4-3" target="pQw8ELn-m5ZEo0cLQNb4-26">
          <mxGeometry relative="1" as="geometry" />
        </mxCell>
        <mxCell id="pQw8ELn-m5ZEo0cLQNb4-3" value="" style="ellipse;whiteSpace=wrap;html=1;aspect=fixed;" vertex="1" parent="1">
          <mxGeometry x="1040" y="410" width="50" height="50" as="geometry" />
        </mxCell>
        <mxCell id="pQw8ELn-m5ZEo0cLQNb4-4" value="" style="edgeStyle=orthogonalEdgeStyle;rounded=0;orthogonalLoop=1;jettySize=auto;html=1;" edge="1" parent="1" source="pQw8ELn-m5ZEo0cLQNb4-5" target="pQw8ELn-m5ZEo0cLQNb4-8">
          <mxGeometry relative="1" as="geometry" />
        </mxCell>
        <mxCell id="pQw8ELn-m5ZEo0cLQNb4-5" value="" style="ellipse;whiteSpace=wrap;html=1;aspect=fixed;" vertex="1" parent="1">
          <mxGeometry x="1040" y="90" width="50" height="50" as="geometry" />
        </mxCell>
        <mxCell id="pQw8ELn-m5ZEo0cLQNb4-6" style="edgeStyle=orthogonalEdgeStyle;rounded=0;orthogonalLoop=1;jettySize=auto;html=1;exitX=1;exitY=0;exitDx=0;exitDy=0;entryX=0;entryY=0.5;entryDx=0;entryDy=0;" edge="1" parent="1" source="pQw8ELn-m5ZEo0cLQNb4-8" target="pQw8ELn-m5ZEo0cLQNb4-11">
          <mxGeometry relative="1" as="geometry">
            <Array as="points">
              <mxPoint x="1083" y="165" />
            </Array>
          </mxGeometry>
        </mxCell>
        <mxCell id="pQw8ELn-m5ZEo0cLQNb4-7" style="edgeStyle=orthogonalEdgeStyle;rounded=0;orthogonalLoop=1;jettySize=auto;html=1;exitX=0.5;exitY=1;exitDx=0;exitDy=0;entryX=0.5;entryY=0;entryDx=0;entryDy=0;" edge="1" parent="1" source="pQw8ELn-m5ZEo0cLQNb4-8" target="pQw8ELn-m5ZEo0cLQNb4-3">
          <mxGeometry relative="1" as="geometry" />
        </mxCell>
        <mxCell id="pQw8ELn-m5ZEo0cLQNb4-8" value="" style="ellipse;whiteSpace=wrap;html=1;aspect=fixed;" vertex="1" parent="1">
          <mxGeometry x="1040" y="160" width="50" height="50" as="geometry" />
        </mxCell>
        <mxCell id="pQw8ELn-m5ZEo0cLQNb4-29" value="" style="edgeStyle=orthogonalEdgeStyle;rounded=0;orthogonalLoop=1;jettySize=auto;html=1;exitX=1;exitY=0;exitDx=0;exitDy=0;entryX=0;entryY=0;entryDx=0;entryDy=0;" edge="1" parent="1" source="pQw8ELn-m5ZEo0cLQNb4-11" target="pQw8ELn-m5ZEo0cLQNb4-28">
          <mxGeometry relative="1" as="geometry">
            <Array as="points">
              <mxPoint x="1203" y="167" />
            </Array>
          </mxGeometry>
        </mxCell>
        <mxCell id="pQw8ELn-m5ZEo0cLQNb4-11" value="" style="ellipse;whiteSpace=wrap;html=1;aspect=fixed;" vertex="1" parent="1">
          <mxGeometry x="1160" y="140" width="50" height="50" as="geometry" />
        </mxCell>
        <mxCell id="pQw8ELn-m5ZEo0cLQNb4-26" value="" style="ellipse;whiteSpace=wrap;html=1;aspect=fixed;fillColor=#f8cecc;strokeColor=#b85450;" vertex="1" parent="1">
          <mxGeometry x="1040" y="495" width="50" height="50" as="geometry" />
        </mxCell>
        <mxCell id="pQw8ELn-m5ZEo0cLQNb4-27" value="" style="endArrow=classic;html=1;rounded=0;" edge="1" parent="1">
          <mxGeometry width="50" height="50" relative="1" as="geometry">
            <mxPoint x="1064.5" y="70" as="sourcePoint" />
            <mxPoint x="1065" y="90" as="targetPoint" />
          </mxGeometry>
        </mxCell>
        <mxCell id="pQw8ELn-m5ZEo0cLQNb4-32" style="edgeStyle=orthogonalEdgeStyle;rounded=0;orthogonalLoop=1;jettySize=auto;html=1;exitX=1;exitY=0.5;exitDx=0;exitDy=0;entryX=0;entryY=0.5;entryDx=0;entryDy=0;" edge="1" parent="1" source="pQw8ELn-m5ZEo0cLQNb4-28" target="pQw8ELn-m5ZEo0cLQNb4-31">
          <mxGeometry relative="1" as="geometry" />
        </mxCell>
        <mxCell id="pQw8ELn-m5ZEo0cLQNb4-28" value="" style="ellipse;whiteSpace=wrap;html=1;aspect=fixed;" vertex="1" parent="1">
          <mxGeometry x="1320" y="160" width="50" height="50" as="geometry" />
        </mxCell>
        <mxCell id="pQw8ELn-m5ZEo0cLQNb4-30" value="" style="edgeStyle=orthogonalEdgeStyle;rounded=0;orthogonalLoop=1;jettySize=auto;html=1;exitX=0;exitY=1;exitDx=0;exitDy=0;entryX=1;entryY=1;entryDx=0;entryDy=0;" edge="1" parent="1" source="pQw8ELn-m5ZEo0cLQNb4-28" target="pQw8ELn-m5ZEo0cLQNb4-8">
          <mxGeometry relative="1" as="geometry">
            <mxPoint x="1220" y="195" as="sourcePoint" />
            <mxPoint x="1210" y="190" as="targetPoint" />
            <Array as="points" />
          </mxGeometry>
        </mxCell>
        <mxCell id="pQw8ELn-m5ZEo0cLQNb4-37" style="edgeStyle=orthogonalEdgeStyle;rounded=0;orthogonalLoop=1;jettySize=auto;html=1;exitX=1;exitY=0;exitDx=0;exitDy=0;entryX=0;entryY=0.5;entryDx=0;entryDy=0;" edge="1" parent="1" source="pQw8ELn-m5ZEo0cLQNb4-31" target="pQw8ELn-m5ZEo0cLQNb4-33">
          <mxGeometry relative="1" as="geometry" />
        </mxCell>
        <mxCell id="pQw8ELn-m5ZEo0cLQNb4-38" style="edgeStyle=orthogonalEdgeStyle;rounded=0;orthogonalLoop=1;jettySize=auto;html=1;exitX=1;exitY=0.5;exitDx=0;exitDy=0;entryX=0.093;entryY=0.693;entryDx=0;entryDy=0;entryPerimeter=0;" edge="1" parent="1" source="pQw8ELn-m5ZEo0cLQNb4-31" target="pQw8ELn-m5ZEo0cLQNb4-34">
          <mxGeometry relative="1" as="geometry" />
        </mxCell>
        <mxCell id="pQw8ELn-m5ZEo0cLQNb4-39" style="edgeStyle=orthogonalEdgeStyle;rounded=0;orthogonalLoop=1;jettySize=auto;html=1;exitX=1;exitY=1;exitDx=0;exitDy=0;entryX=0.077;entryY=0.293;entryDx=0;entryDy=0;entryPerimeter=0;" edge="1" parent="1" source="pQw8ELn-m5ZEo0cLQNb4-31" target="pQw8ELn-m5ZEo0cLQNb4-35">
          <mxGeometry relative="1" as="geometry">
            <Array as="points">
              <mxPoint x="1523" y="245" />
            </Array>
          </mxGeometry>
        </mxCell>
        <mxCell id="pQw8ELn-m5ZEo0cLQNb4-40" style="edgeStyle=orthogonalEdgeStyle;rounded=0;orthogonalLoop=1;jettySize=auto;html=1;exitX=0.5;exitY=1;exitDx=0;exitDy=0;entryX=-0.073;entryY=0.393;entryDx=0;entryDy=0;entryPerimeter=0;" edge="1" parent="1" source="pQw8ELn-m5ZEo0cLQNb4-31" target="pQw8ELn-m5ZEo0cLQNb4-36">
          <mxGeometry relative="1" as="geometry">
            <Array as="points">
              <mxPoint x="1505" y="330" />
            </Array>
          </mxGeometry>
        </mxCell>
        <mxCell id="pQw8ELn-m5ZEo0cLQNb4-31" value="" style="ellipse;whiteSpace=wrap;html=1;aspect=fixed;" vertex="1" parent="1">
          <mxGeometry x="1480" y="160" width="50" height="50" as="geometry" />
        </mxCell>
        <mxCell id="pQw8ELn-m5ZEo0cLQNb4-41" style="edgeStyle=orthogonalEdgeStyle;rounded=0;orthogonalLoop=1;jettySize=auto;html=1;exitX=1;exitY=0.5;exitDx=0;exitDy=0;entryX=0.5;entryY=1;entryDx=0;entryDy=0;" edge="1" parent="1" source="pQw8ELn-m5ZEo0cLQNb4-33" target="pQw8ELn-m5ZEo0cLQNb4-28">
          <mxGeometry relative="1" as="geometry">
            <mxPoint x="1660" y="430" as="targetPoint" />
            <Array as="points">
              <mxPoint x="1661" y="85" />
              <mxPoint x="1661" y="390" />
              <mxPoint x="1345" y="390" />
            </Array>
          </mxGeometry>
        </mxCell>
        <mxCell id="pQw8ELn-m5ZEo0cLQNb4-33" value="" style="ellipse;whiteSpace=wrap;html=1;aspect=fixed;" vertex="1" parent="1">
          <mxGeometry x="1590" y="60" width="50" height="50" as="geometry" />
        </mxCell>
        <mxCell id="pQw8ELn-m5ZEo0cLQNb4-42" style="edgeStyle=orthogonalEdgeStyle;rounded=0;orthogonalLoop=1;jettySize=auto;html=1;exitX=1;exitY=0.5;exitDx=0;exitDy=0;" edge="1" parent="1" source="pQw8ELn-m5ZEo0cLQNb4-34">
          <mxGeometry relative="1" as="geometry">
            <mxPoint x="1660" y="174.66666666666674" as="targetPoint" />
          </mxGeometry>
        </mxCell>
        <mxCell id="pQw8ELn-m5ZEo0cLQNb4-34" value="" style="ellipse;whiteSpace=wrap;html=1;aspect=fixed;" vertex="1" parent="1">
          <mxGeometry x="1590" y="150" width="50" height="50" as="geometry" />
        </mxCell>
        <mxCell id="pQw8ELn-m5ZEo0cLQNb4-43" style="edgeStyle=orthogonalEdgeStyle;rounded=0;orthogonalLoop=1;jettySize=auto;html=1;exitX=1;exitY=0.5;exitDx=0;exitDy=0;" edge="1" parent="1" source="pQw8ELn-m5ZEo0cLQNb4-35">
          <mxGeometry relative="1" as="geometry">
            <mxPoint x="1660" y="254.66666666666674" as="targetPoint" />
          </mxGeometry>
        </mxCell>
        <mxCell id="pQw8ELn-m5ZEo0cLQNb4-35" value="" style="ellipse;whiteSpace=wrap;html=1;aspect=fixed;" vertex="1" parent="1">
          <mxGeometry x="1590" y="230" width="50" height="50" as="geometry" />
        </mxCell>
        <mxCell id="pQw8ELn-m5ZEo0cLQNb4-44" style="edgeStyle=orthogonalEdgeStyle;rounded=0;orthogonalLoop=1;jettySize=auto;html=1;exitX=1;exitY=0.5;exitDx=0;exitDy=0;" edge="1" parent="1" source="pQw8ELn-m5ZEo0cLQNb4-36">
          <mxGeometry relative="1" as="geometry">
            <mxPoint x="1660" y="334.66666666666674" as="targetPoint" />
          </mxGeometry>
        </mxCell>
        <mxCell id="pQw8ELn-m5ZEo0cLQNb4-36" value="" style="ellipse;whiteSpace=wrap;html=1;aspect=fixed;" vertex="1" parent="1">
          <mxGeometry x="1590" y="310" width="50" height="50" as="geometry" />
        </mxCell>
        <mxCell id="pQw8ELn-m5ZEo0cLQNb4-45" value="Text" style="text;html=1;strokeColor=none;fillColor=none;align=center;verticalAlign=middle;whiteSpace=wrap;rounded=0;" vertex="1" parent="1">
          <mxGeometry x="1350" y="220" width="60" height="30" as="geometry" />
        </mxCell>
      </root>
    </mxGraphModel>
  </diagram>
</mxfile>
